<svg xmlns="http://www.w3.org/2000/svg" viewBox="0 0 1024 1024" role="img" aria-label="キキトリ">
  <defs>
    <linearGradient id="bg" x1="160" y1="80" x2="880" y2="930" gradientUnits="userSpaceOnUse">
      <stop stop-color="#ecfffb"/>
      <stop offset="0.55" stop-color="#18a99b"/>
      <stop offset="1" stop-color="#063f3c"/>
    </linearGradient>
    <filter id="shadow" x="150" y="120" width="760" height="820" color-interpolation-filters="sRGB" filterUnits="userSpaceOnUse">
      <feDropShadow dx="0" dy="28" stdDeviation="36" flood-color="#063f3c" flood-opacity="0.28"/>
    </filter>
  </defs>
  <rect width="1024" height="1024" rx="228" fill="url(#bg)"/>
  <circle cx="792" cy="214" r="78" fill="#ef7b63"/>
  <circle cx="236" cy="806" r="58" fill="#d69f2d"/>
  <g filter="url(#shadow)">
    <rect x="206" y="168" width="612" height="688" rx="96" fill="#ffffff"/>
    <path d="M310 304h242M310 404h404M310 504h310" stroke="#0b4f4a" stroke-width="36" stroke-linecap="round" opacity="0.42"/>
    <circle cx="512" cy="568" r="180" fill="#0f766e"/>
    <circle cx="512" cy="568" r="104" fill="#f8fffd"/>
    <path d="M548 512c0-24 29-36 46-19l49 49c15 15 15 40 0 55l-49 49c-17 17-46 5-46-19V512Z" fill="#ef7b63"/>
    <path d="M465 516v104" stroke="#0f766e" stroke-width="46" stroke-linecap="round"/>
    <path d="M400 548v40" stroke="#0f766e" stroke-width="34" stroke-linecap="round"/>
  </g>
  <rect x="180" y="738" width="664" height="156" rx="78" fill="#ffffff" opacity="0.98"/>
  <text x="512" y="852" text-anchor="middle" font-family="system-ui, -apple-system, BlinkMacSystemFont, 'Segoe UI', sans-serif" font-size="112" font-weight="900" fill="#0b4f4a">キキ</text>
</svg>
