<svg xmlns="http://www.w3.org/2000/svg" viewBox="0 0 1024 1024" role="img" aria-label="キキトリ">
  <defs>
    <linearGradient id="bg" x1="150" y1="70" x2="880" y2="940" gradientUnits="userSpaceOnUse">
      <stop stop-color="#ecfffb"/>
      <stop offset="0.55" stop-color="#18a99b"/>
      <stop offset="1" stop-color="#063f3c"/>
    </linearGradient>
    <filter id="shadow" x="132" y="112" width="790" height="840" color-interpolation-filters="sRGB" filterUnits="userSpaceOnUse">
      <feDropShadow dx="0" dy="28" stdDeviation="34" flood-color="#063f3c" flood-opacity="0.28"/>
    </filter>
  </defs>
  <rect width="1024" height="1024" rx="228" fill="url(#bg)"/>
  <circle cx="792" cy="214" r="78" fill="#ef7b63"/>
  <circle cx="236" cy="806" r="58" fill="#d69f2d"/>
  <g filter="url(#shadow)">
    <rect x="188" y="146" width="648" height="730" rx="104" fill="#ffffff"/>
    <path d="M312 288h250M312 386h400M312 484h310" stroke="#0b4f4a" stroke-width="34" stroke-linecap="round" opacity="0.28"/>
    <circle cx="512" cy="505" r="146" fill="#0f766e"/>
    <circle cx="512" cy="505" r="82" fill="#f8fffd"/>
    <path d="M540 462c0-20 24-30 38-16l40 40c13 13 13 34 0 47l-40 40c-14 14-38 4-38-16V462Z" fill="#ef7b63"/>
    <path d="M474 464v84" stroke="#0f766e" stroke-width="38" stroke-linecap="round"/>
  </g>
  <rect x="190" y="650" width="644" height="238" rx="82" fill="#ffffff" opacity="0.99"/>
  <text x="512" y="754" text-anchor="middle" font-family="system-ui, -apple-system, BlinkMacSystemFont, 'Segoe UI', sans-serif" font-size="106" font-weight="900" fill="#0b4f4a">キキ</text>
  <text x="512" y="850" text-anchor="middle" font-family="system-ui, -apple-system, BlinkMacSystemFont, 'Segoe UI', sans-serif" font-size="106" font-weight="900" fill="#0b4f4a">トリ</text>
</svg>
