<svg xmlns="http://www.w3.org/2000/svg" viewBox="0 0 1024 1024" role="img" aria-label="キキトリ"><defs><linearGradient id="bg" x1="170" y1="88" x2="854" y2="936" gradientUnits="userSpaceOnUse"><stop stop-color="#e8fbf7"/><stop offset="0.55" stop-color="#22a69a"/><stop offset="1" stop-color="#0b4f4a"/></linearGradient><linearGradient id="paper" x1="313" y1="214" x2="699" y2="792" gradientUnits="userSpaceOnUse"><stop stop-color="#ffffff"/><stop offset="1" stop-color="#dff3ee"/></linearGradient><filter id="shadow" x="160" y="130" width="704" height="780" color-interpolation-filters="sRGB" filterUnits="userSpaceOnUse"><feDropShadow dx="0" dy="26" stdDeviation="34" flood-color="#083a36" flood-opacity="0.26"/></filter></defs><rect width="1024" height="1024" rx="228" fill="url(#bg)"/><circle cx="770" cy="218" r="78" fill="#ef7b63"/><circle cx="236" cy="796" r="54" fill="#d69f2d"/><g filter="url(#shadow)"><path d="M302 186h332l112 112v482c0 42-34 76-76 76H302c-42 0-76-34-76-76V262c0-42 34-76 76-76Z" fill="url(#paper)"/><path d="M634 186v86c0 35 28 63 63 63h49L634 186Z" fill="#bfe8df"/><path d="M336 428h244M336 532h352M336 636h284" stroke="#0b4f4a" stroke-width="34" stroke-linecap="round"/></g><path d="M743 572c0 118-96 214-214 214S315 690 315 572s96-214 214-214 214 96 214 214Z" fill="#0f766e"/><path d="M650 572c0 67-54 121-121 121s-121-54-121-121 54-121 121-121 121 54 121 121Z" fill="#f8fffd"/><path d="M560 515c0-24 29-36 46-19l42 42c16 16 16 43 0 59l-42 42c-17 17-46 5-46-19V515Z" fill="#ef7b63"/><path d="M474 510v124" stroke="#0f766e" stroke-width="44" stroke-linecap="round"/><path d="M410 550v44" stroke="#0f766e" stroke-width="34" stroke-linecap="round"/><path d="M832 818c0 49-40 89-89 89H428c-49 0-89-40-89-89s40-89 89-89h315c49 0 89 40 89 89Z" fill="#ffffff"/><text x="586" y="849" text-anchor="middle" font-family="system-ui, -apple-system, BlinkMacSystemFont, 'Segoe UI', sans-serif" font-size="86" font-weight="800" fill="#0b4f4a">キキトリ</text></svg>
